<mxfile host="app.diagrams.net" modified="2023-06-29T13:14:16.577Z" agent="Mozilla/5.0 (Windows NT 10.0; Win64; x64) AppleWebKit/537.36 (KHTML, like Gecko) Chrome/114.0.0.0 Safari/537.36" version="21.5.2" etag="gNdbGiEMDXYH98dXaVDh" type="github">
  <diagram name="Page-1" id="1tgq1NPAuYSztsh7op3z">
    <mxGraphModel>
      <root>
        <mxCell id="0" />
        <mxCell id="1" parent="0" />
      </root>
    </mxGraphModel>
  </diagram>
</mxfile>
